<?xml version="1.0" encoding="utf-8"?>
<!-- Generator: Adobe Illustrator 22.1.0, SVG Export Plug-In . SVG Version: 6.00 Build 0)  -->
<svg version="1.1" id="Layer_1" xmlns="http://www.w3.org/2000/svg" xmlns:xlink="http://www.w3.org/1999/xlink" x="0px" y="0px"
	 viewBox="0 0 540 350" style="enable-background:new 0 0 540 350;" xml:space="preserve">
<style type="text/css">
	.st0{opacity:0.75;fill:#DBD8D7;}
	.st1{fill:#130F40;}
	.st2{fill:#3F3D56;}
	.st3{fill:#FFFFFF;}
	.st4{fill:none;stroke:#3F3D56;stroke-width:2;stroke-miterlimit:10;}
	.st5{fill:#F2F2F2;}
	.st6{fill:#FFC89F;}
	.st7{opacity:0.1;enable-background:new    ;}
	.st8{fill:#2F2E41;}
	.st9{fill:#D0CDE1;}
</style>
<g>
	<path class="st0" d="M174.7,2.5L103.5,41c5,8.6,2.1,19.7-6.6,24.7c-8.6,5-19.7,2.1-24.7-6.6c-0.2-0.3-0.4-0.6-0.5-0.9L47.4,71.4
		l62.9,116l127.3-68.9L174.7,2.5z"/>
	<circle class="st1" cx="86.8" cy="50.1" r="14.7"/>
	<path class="st0" d="M353.4,313.1l76.9-25.1c-3.4-9.4,1.5-19.8,10.9-23.2c9.4-3.4,19.8,1.5,23.2,10.9c0.1,0.3,0.2,0.7,0.3,1
		l26.2-8.6l-40.9-125.5l-137.6,44.9L353.4,313.1z"/>
	<circle class="st1" cx="448.5" cy="282.1" r="14.7"/>
	<rect x="96.2" y="71.3" class="st2" width="355.3" height="161.4"/>
	<rect x="102.1" y="77.2" class="st3" width="343.6" height="146.5"/>
	<rect x="377.3" y="216.7" class="st2" width="33.4" height="11.3"/>
	<rect x="351.2" y="225.3" class="st3" width="24.3" height="3.2"/>
	<polyline class="st4" points="130,132.6 261.2,132.6 281.6,142.5 314,158.3 335.2,118.6 395.1,118.6 	"/>
	<polyline class="st4" points="181.6,132.6 191.3,155.6 215.2,155.6 	"/>
	<polyline class="st4" points="218.1,132.6 251.3,114.6 274.8,114.6 	"/>
	<circle class="st1" cx="181.4" cy="132.6" r="4.1"/>
	<circle class="st1" cx="219.3" cy="132.6" r="4.1"/>
	<polyline class="st4" points="281.5,142.5 284.2,182.7 307.7,182.7 	"/>
	<polyline class="st4" points="326.7,134.6 300.9,114.6 325.2,114.6 	"/>
	<polyline class="st4" points="369.2,118.6 394.2,138.5 417.7,138.5 	"/>
	<circle class="st1" cx="281.5" cy="142.5" r="4.1"/>
	<circle class="st1" cx="369" cy="118.6" r="4.1"/>
	<circle class="st1" cx="326.6" cy="134.4" r="4.1"/>
	<line class="st4" x1="191.8" y1="159.2" x2="215.2" y2="159.2"/>
	<circle class="st4" cx="409.1" cy="36.5" r="6.7"/>
	<ellipse class="st5" cx="112.7" cy="337.1" rx="68.5" ry="12.6"/>
	<polygon class="st3" points="159.7,225 147.5,231.2 148.3,232.8 160.5,226.6 	"/>
	<path class="st6" d="M157.7,213.6l-0.5,3.3c0,0,0.8,22.8-5.2,15.7c-6-7.1-1.9-16.8-1.9-16.8l1.6-2.7L157.7,213.6z"/>
	<path class="st6" d="M122.6,108.1c0,0-1.1,11.5-1.6,12.1c-0.5,0.5,8.2,11,8.2,11l7.7-7.1c0,0-0.5-10.4,1.1-12.6
		C139.6,109.2,122.6,108.1,122.6,108.1z"/>
	<path class="st7" d="M122.6,108.1c0,0-1.1,11.5-1.6,12.1c-0.5,0.5,8.2,11,8.2,11l7.7-7.1c0,0-0.5-10.4,1.1-12.6
		C139.6,109.2,122.6,108.1,122.6,108.1z"/>
	<polygon class="st6" points="102.3,318.5 102.3,328.4 98.4,328.9 92.9,327.3 94.6,316.8 	"/>
	<path class="st8" d="M97.3,323.4c0,0-1.6-4.4-4.4-3.8s-3.3,3.8-3.3,3.8s-2.2,8.2-5.5,11s-6.6,9.9,0,11s12.1-1.6,12.1-2.2
		c0-0.5,1.6-3.8,4.4-4.4c2.7-0.5,4.9-1.1,4.9-3.3s-1.6-4.4-1.6-4.4s-0.5-10.4-1.6-9.1c-0.8,1.1-1.3,2.3-1.6,3.6L97.3,323.4z"/>
	<polygon class="st6" points="125.9,313.5 123.7,321.8 129.2,322.9 131.9,320.1 132.5,313 	"/>
	<path class="st8" d="M125.3,320.7c0,0,2.2-1.6,3.3-1.6h1.6c0,0,0-3.8,2.7-3.8c2.7,0,2.2,2.7,2.2,2.7s6,9.3,7.7,11
		c1.6,1.6,10.4,6.6,3.3,8.8c-7.1,2.2-12.1,2.2-15.4-1.6c0,0-3.3-1.6-5.5-1.6s-4.9-1.1-4.9-2.7s1.6-4.9,1.6-4.9s1.1-9.9,1.6-8.8
		C124.2,319,125.3,320.7,125.3,320.7z"/>
	<path class="st8" d="M101.7,187.2v18.1c0,0-6,35.2-6,46.7c0,11.5-9.3,66.5-4.9,67.6c4.4,1.1,14.8,2.7,15.4,1.1
		c0.5-1.6,4.4-53.8,4.9-54.4c0.5-0.5,12.1-43.9,12.1-43.9l2.2,0.5l1.1,49.4c0,0-5.5,44.5-2.7,44.5c2.7,0,14.3-0.5,14.3-3.8
		s6-64.3,6-64.3s7.1-48.3,4.4-53.3c-2.7-4.9-2.7-7.7-2.7-7.7L101.7,187.2z"/>
	<circle class="st6" cx="131.7" cy="105.6" r="11"/>
	<path class="st9" d="M129.2,124.6c0,0-6.9-5.8-7.4-8c0,0-3.6,3.6-3.6,4.1c0,0.5-15.4,2.2-19.2,6.6s-7.1,13.7-7.1,13.7l9.3,17.6
		c0,0,0.5,9.9,0.5,11s-2.7,18.7-1.6,19.2c1.1,0.5,12.1,6,21.4,4.9c9.3-1.1,18.7-2.7,21.4-2.7c2.7,0,4.9,1.1,4.9,0s-1.6-3.3-1.6-4.4
		c0-1.1-0.5-3.8-0.5-5.5s-1.1-4.4-1.1-6.6s12.1-31.9,12.1-31.9s-0.5-9.3-9.3-13.7c-8.8-4.4-9.9-6-9.9-6s-0.2-3.3-0.6-3.3
		s-2.1,4.9-6.5,5.5L129.2,124.6z"/>
	<polygon class="st6" points="99.5,197.6 103.4,203.7 113.3,201.5 106.1,193.2 	"/>
	<path class="st9" d="M153.4,138.3l3.3,4.4c0,0,6.6,31.9,5.5,43.4s-2.2,20.3-2.2,20.3s2.2,8.2,0.5,8.2s-11.5,0.5-11.5-1.1
		c0-1.6,1.1-12.1,1.1-12.1l-2.7-24.2l-6-8.2L153.4,138.3z"/>
	<path class="st8" d="M124.2,100.3c0.7-0.3,1.5-0.1,2.2-0.2c0.8-0.1,1.6-0.8,2.5-0.7c0.4,0.1,0.8,0.2,1.2,0.4c0.4,0.2,0.8,0.2,1.2,0
		c0.3-0.2,0.5-0.6,0.3-0.9c0,0,0-0.1-0.1-0.1c0.7-0.1,1.4-0.4,2-0.8c0.1-0.1,0.2-0.2,0.4-0.3c0.3-0.1,0.7,0,1,0.1l1.3,0.6
		c0.3,0.1,0.5,0.3,0.7,0.5c0.1,0.2,0.2,0.5,0.4,0.7c0.3,0.2,0.7,0.1,1,0.1c0.7,0.1,1.2,0.6,1.2,1.3c0,0.4-0.1,0.8,0.2,1
		c0.2,0.1,0.4,0.1,0.6,0.2c0.5,0.2,0.5,0.9,0.4,1.5s0,1.3,0.5,1.4c0.4,0.1,0.8-0.1,1.1-0.2c0.6-0.1,1.1,0.3,1.6,0.6
		c0.5,0.3,1.2,0.5,1.7,0.1c0.4-0.4,0.4-1,0.3-1.5c-0.2-0.8-0.4-1.5-0.8-2.2c-0.1-0.2-0.2-0.4-0.2-0.7c0.1-0.3,0.3-0.7,0.6-0.8
		c0.6-0.5,1.4-1,1.6-1.8c0.2-0.6,0-1.2,0-1.8c0-0.7,0.3-1.4,0.2-2.2c-0.2-1.3-1.7-1.9-2.6-2.8c-1.3-1.3-1.7-3.3-3.2-4.3
		c-1.2-0.8-2.8-0.7-4.1-1.2c-1.5-0.5-2.7-1.7-4.2-2.2c-1.6-0.6-3.5-0.4-5,0.4c-0.4,0.3-0.9,0.6-1.5,0.7c-0.4,0.1-0.9,0-1.3,0
		c-0.9,0-1.7,0.1-2.5,0.5c-0.3,0.1-0.6,0.3-0.7,0.6c-0.3,0.6,0.1,1.5-0.5,1.8c-0.3,0.1-0.6,0-0.9,0c-0.6,0-1,0.5-1.3,1
		c-0.2,0.5-0.5,1-0.9,1.5c-0.7,0.6-2,0.7-2.2,1.7c0,0.4,0,0.8,0.1,1.2c-0.1,0.8-0.9,1.5-0.9,2.3c0.1,1,1.3,1.4,1.6,2.3
		c0.2,0.7-0.1,1.4-0.3,2.1c-0.2,0.7-0.3,1.6,0.3,2c0.2,0.2,0.5,0.2,0.7,0.4c0.6,0.4,0.6,1.3,0.5,2c-0.1,0.3,0,0.6,0.2,0.9
		c0.2,0.1,0.4,0.1,0.7,0.1c0.7-0.2,1.3-0.6,1.7-1.3c0.2-0.3,0.2-0.6,0.6-0.8c0.2-0.1,0.5,0,0.8-0.2
		C123.2,102.9,122.8,100.9,124.2,100.3z"/>
	<path class="st9" d="M93.5,139.4l-1.6,1.6c0,0-9.9,29.7-6.6,36.3c3.3,6.6,9.9,23.1,12.1,22.5c2.2-0.5,9.9-5.5,9.9-6
		c0-0.5-9.3-15.9-9.3-15.9s-1.1-3.3-0.5-3.8c0.5-0.5,0.5,0,0-1.1c-0.5-1.1-0.5,0,0.5-1.1c1.1-1.1,1.1-1.1,1.1-1.6
		c0-0.5,3.3-14.3,3.3-14.3L93.5,139.4z"/>
	<polygon class="st8" points="102,204 114.1,200.1 115.7,204 102.5,206.7 	"/>
	<polygon class="st7" points="102,204 114.1,200.1 115.7,204 102.5,206.7 	"/>
	<polygon class="st7" points="118.5,121 127.8,128.7 128.9,127.1 	"/>
	<polygon class="st7" points="137.1,123.2 130.6,127.1 131.1,128.7 	"/>
</g>
</svg>
