<?xml version="1.0" encoding="utf-8"?>
<!-- Generator: Adobe Illustrator 22.1.0, SVG Export Plug-In . SVG Version: 6.00 Build 0)  -->
<svg version="1.1" id="Layer_1" xmlns="http://www.w3.org/2000/svg" xmlns:xlink="http://www.w3.org/1999/xlink" x="0px" y="0px"
	 viewBox="0 0 1920.2 1075.6" style="enable-background:new 0 0 1920.2 1075.6;" xml:space="preserve">
<style type="text/css">
	.st0{opacity:0.5;fill:url(#Path_194_2_);}
	.st1{fill:url(#Path_194_3_);}
	.st2{clip-path:url(#SVGID_2_);}
	.st3{opacity:0.4;fill:none;stroke:url(#Path_4_1_);stroke-width:128;enable-background:new    ;}
</style>
<linearGradient id="Path_194_2_" gradientUnits="userSpaceOnUse" x1="690.1406" y1="715.2966" x2="690.1406" y2="714.5323" gradientTransform="matrix(1920.1058 0 0 -1075.6212 -1324183 769429.1875)">
	<stop  offset="0" style="stop-color:#130F40"/>
	<stop  offset="1" style="stop-color:#30336B"/>
</linearGradient>
<path id="Path_194" class="st0" d="M0.1,648.6c0,0,95.3,204.2,401.2,161.1c305.9-43,419.7-32.1,544.2,96.9s344,107.5,572.9,67.1
	s360.2,68.2,401.8,143c0-2.4-0.1-1075.6-0.1-1075.6L0.1,41L0.1,648.6z"/>
<linearGradient id="Path_194_3_" gradientUnits="userSpaceOnUse" x1="690.1406" y1="715.3347" x2="690.1406" y2="714.5705" gradientTransform="matrix(1920.1058 0 0 -1075.6212 -1324183 769429.1875)">
	<stop  offset="0" style="stop-color:#130F40"/>
	<stop  offset="1" style="stop-color:#30336B"/>
</linearGradient>
<path id="Path_194_1_" class="st1" d="M0.1,607.6c0,0,95.3,204.2,401.2,161.1c305.9-43,419.7-32.1,544.2,96.9s344,107.5,572.9,67.1
	s360.2,68.2,401.8,143c0-2.4-0.1-1075.6-0.1-1075.6L0.1,0L0.1,607.6z"/>
<g>
	<defs>
		<path id="SVGID_1_" d="M0.1,607.6c0,0,95.3,204.2,401.2,161.1c305.9-43,419.7-32.1,544.2,96.9s344,107.5,572.9,67.1
			s360.2,68.2,401.8,143c0-2.4-0.1-1075.6-0.1-1075.6L0.1,0L0.1,607.6z"/>
	</defs>
	<clipPath id="SVGID_2_">
		<use xlink:href="#SVGID_1_"  style="overflow:visible;"/>
	</clipPath>
	<g id="Mask_Group_6" class="st2">
		<linearGradient id="Path_4_1_" gradientUnits="userSpaceOnUse" x1="-32.763" y1="330.7987" x2="1959.8176" y2="330.7987">
			<stop  offset="0" style="stop-color:#130F40"/>
			<stop  offset="1" style="stop-color:#30336B"/>
		</linearGradient>
		<path id="Path_4" class="st3" d="M25.7,687.7c0,0,174.2-392,817.4-255s869.4,77.5,1056.2-464"/>
	</g>
</g>
</svg>
