<?xml version="1.0" encoding="utf-8"?>
<!-- Generator: Adobe Illustrator 22.1.0, SVG Export Plug-In . SVG Version: 6.00 Build 0)  -->
<svg version="1.1" id="Layer_1" xmlns="http://www.w3.org/2000/svg" xmlns:xlink="http://www.w3.org/1999/xlink" x="0px" y="0px"
	 viewBox="0 0 1920.2 1075.6" style="enable-background:new 0 0 1920.2 1075.6;" xml:space="preserve">
<style type="text/css">
	.st0{opacity:0.5;fill:url(#Path_194_2_);}
	.st1{fill:url(#Path_194_3_);}
	.st2{clip-path:url(#SVGID_2_);}
	.st3{opacity:0.4;fill:none;stroke:url(#Path_4_1_);stroke-width:128;enable-background:new    ;}
</style>
<g>
	
		<linearGradient id="Path_194_2_" gradientUnits="userSpaceOnUse" x1="690.1406" y1="715.2966" x2="690.1406" y2="714.5323" gradientTransform="matrix(1920.1058 0 0 1075.6212 -1324183 -768312.5625)">
		<stop  offset="0" style="stop-color:#130F40"/>
		<stop  offset="1" style="stop-color:#30336B"/>
	</linearGradient>
	<path id="Path_194" class="st0" d="M0.1,1075.6l1920,0c0,0,0.1-1073.2,0.1-1075.6c-41.6,74.8-172.9,183.4-401.8,143
		S1070,81.1,945.5,210S707.2,350,401.3,306.9S0.1,468.1,0.1,468.1L0.1,1075.6z"/>
	
		<linearGradient id="Path_194_3_" gradientUnits="userSpaceOnUse" x1="690.1406" y1="715.3347" x2="690.1406" y2="714.5705" gradientTransform="matrix(1920.1058 0 0 1075.6212 -1324183 -768312.5625)">
		<stop  offset="0" style="stop-color:#130F40"/>
		<stop  offset="1" style="stop-color:#30336B"/>
	</linearGradient>
	<path id="Path_194_1_" class="st1" d="M0.1,1116.6l1920,0c0,0,0.1-1073.2,0.1-1075.6c-41.6,74.8-172.9,183.4-401.8,143
		S1070,122.1,945.5,251S707.2,391,401.3,347.9S0.1,509.1,0.1,509.1L0.1,1116.6z"/>
	<g>
		<defs>
			<path id="SVGID_1_" d="M0.1,1116.6l1920,0c0,0,0.1-1073.2,0.1-1075.6c-41.6,74.8-172.9,183.4-401.8,143S1070,122.1,945.5,251
				S707.2,391,401.3,347.9S0.1,509.1,0.1,509.1L0.1,1116.6z"/>
		</defs>
		<clipPath id="SVGID_2_">
			<use xlink:href="#SVGID_1_"  style="overflow:visible;"/>
		</clipPath>
		<g id="Mask_Group_6" class="st2">
			
				<linearGradient id="Path_4_1_" gradientUnits="userSpaceOnUse" x1="-32.763" y1="330.7987" x2="1959.8176" y2="330.7987" gradientTransform="matrix(1 0 0 -1 0 1116.641)">
				<stop  offset="0" style="stop-color:#130F40"/>
				<stop  offset="1" style="stop-color:#30336B"/>
			</linearGradient>
			<path id="Path_4" class="st3" d="M1899.3,1147.9c-186.7-541.4-413-601-1056.2-464s-817.4-255-817.4-255"/>
		</g>
	</g>
</g>
</svg>
